<?xml version="1.0" standalone="no"?>
<!DOCTYPE svg PUBLIC "-//W3C//DTD SVG 20010904//EN"
 "http://www.w3.org/TR/2001/REC-SVG-20010904/DTD/svg10.dtd">
<svg version="1.0" xmlns="http://www.w3.org/2000/svg"
 width="1024.000000pt" height="1024.000000pt" viewBox="0 0 1024.000000 1024.000000"
 preserveAspectRatio="xMidYMid meet">

<g transform="translate(0.000000,1024.000000) scale(0.100000,-0.100000)"
fill="#000000" stroke="none">
<path d="M4835 9084 c-1084 -111 -1994 -587 -2673 -1397 -79 -93 -195 -255
-267 -371 l-49 -79 21 -81 c12 -45 44 -144 73 -221 160 -429 391 -812 532
-883 133 -66 298 -38 401 66 84 86 113 165 192 520 126 561 285 916 577 1285
97 122 292 319 403 407 503 399 1179 609 1885 587 171 -6 456 -35 553 -57 37
-8 58 -6 46 4 -2 2 -44 17 -94 34 -259 88 -642 163 -980 192 -161 13 -461 11
-620 -6z"/>
<path d="M5460 8604 c-437 -53 -782 -172 -1096 -379 -337 -223 -616 -540 -804
-914 -120 -240 -168 -399 -286 -936 -61 -280 -158 -439 -321 -528 -56 -30
-199 -70 -221 -62 -8 3 -12 0 -10 -7 14 -42 395 -255 583 -326 233 -88 409
-122 665 -129 297 -8 483 23 728 119 106 42 108 42 252 45 l145 3 -32 -29
c-77 -71 -316 -194 -483 -249 -222 -74 -398 -96 -699 -89 -291 6 -507 45 -786
140 -513 175 -916 431 -1567 995 -53 46 -100 84 -104 84 -20 -1 -105 -303
-139 -496 -32 -182 -45 -317 -31 -321 6 -2 83 -6 171 -9 256 -8 394 -45 860
-228 309 -122 451 -172 629 -223 288 -83 652 -135 944 -135 64 0 102 -4 96 -9
-15 -15 -169 -60 -262 -77 -118 -22 -500 -30 -685 -15 -216 18 -466 57 -622
96 -77 20 -293 87 -480 150 -334 112 -526 168 -624 181 l-49 6 -8 -48 c-13
-89 28 -649 49 -671 3 -3 47 9 98 26 184 62 364 101 594 127 109 13 308 18
900 24 797 8 883 13 1170 61 169 28 413 89 600 150 146 47 170 52 275 56 l115
5 -25 -27 c-40 -44 -266 -189 -385 -249 -245 -121 -529 -195 -871 -226 -76 -7
-379 -10 -830 -8 -773 3 -814 1 -1103 -58 -238 -48 -491 -133 -491 -165 0 -27
78 -297 116 -401 l36 -96 96 63 c299 195 653 330 1008 385 158 24 462 42 599
35 55 -3 236 -12 401 -21 249 -14 328 -15 449 -5 316 25 569 105 809 255 86
55 257 184 325 246 l34 31 -7 -42 c-18 -112 -131 -293 -264 -421 -110 -105
-192 -164 -318 -226 -205 -102 -384 -143 -749 -171 -568 -45 -847 -97 -1153
-217 -276 -108 -578 -299 -832 -525 l-62 -56 52 -79 c144 -215 329 -444 502
-622 99 -101 101 -103 116 -81 34 49 166 189 239 255 298 268 538 398 1073
584 359 125 528 203 755 353 246 162 480 398 639 644 52 80 136 249 136 272 0
11 3 12 12 3 16 -16 23 -245 9 -323 -37 -213 -163 -462 -331 -657 -179 -207
-446 -388 -775 -525 -60 -25 -182 -76 -270 -112 -471 -196 -804 -430 -1068
-750 -31 -37 -54 -72 -51 -77 18 -28 331 -216 512 -307 732 -367 1554 -505
2337 -395 353 50 694 141 1005 269 150 62 334 151 324 157 -45 26 -369 116
-599 167 -646 143 -1214 177 -1730 105 -298 -41 -698 -159 -916 -269 -27 -14
-49 -22 -49 -18 0 18 148 168 236 238 155 125 357 242 569 331 63 26 86 44
231 189 189 188 299 323 451 550 103 154 171 278 300 543 130 268 177 343 245
392 72 53 78 51 338 -117 69 -44 182 -110 253 -147 70 -37 127 -70 127 -72 0
-3 -15 -35 -34 -72 -81 -160 -165 -386 -205 -547 -62 -255 -56 -551 16 -716
l18 -41 115 -29 c228 -58 635 -196 836 -282 l81 -35 119 85 c844 602 1409
1461 1607 2443 63 313 82 525 74 860 -8 331 -26 479 -93 760 -175 735 -544
1398 -1075 1930 -201 202 -375 346 -632 524 l-98 69 -37 -34 c-20 -19 -81 -76
-135 -129 l-97 -95 -68 37 c-213 116 -479 206 -751 254 -125 22 -181 27 -386
29 -132 2 -256 1 -275 -1z m145 -430 c4 -85 5 -157 3 -160 -3 -2 -42 -11 -89
-19 -46 -9 -130 -28 -187 -42 -57 -14 -104 -24 -106 -22 -2 2 -28 72 -59 154
l-56 150 28 12 c35 15 270 60 371 72 41 5 78 9 81 10 4 0 10 -69 14 -155z
m482 131 c214 -28 443 -88 630 -166 l74 -31 -17 -27 c-10 -14 -41 -58 -70 -97
l-52 -72 -99 30 c-158 47 -309 69 -507 75 l-179 6 7 81 c3 44 6 111 6 149 l0
67 44 0 c25 0 98 -7 163 -15z m-1184 -311 c37 -80 67 -149 67 -154 0 -5 -39
-32 -87 -61 -49 -29 -116 -72 -150 -96 -34 -23 -64 -43 -66 -43 -12 0 -237
253 -232 260 15 24 360 232 396 239 3 1 36 -64 72 -145z m1501 -224 c150 -32
353 -102 468 -161 168 -87 272 -162 403 -294 108 -107 206 -228 194 -239 -2
-2 -44 0 -94 6 -176 20 -454 -6 -678 -63 -267 -68 -648 -221 -887 -357 -52
-30 -99 -57 -105 -60 -12 -6 101 112 196 204 108 105 335 274 369 274 5 0 12
5 16 11 11 18 -147 2 -263 -26 -149 -36 -341 -119 -501 -216 -35 -21 -62 -34
-60 -29 2 6 48 55 103 111 158 160 314 271 515 369 75 36 80 40 55 46 -36 9
-202 -4 -293 -22 -154 -32 -363 -119 -505 -210 -38 -25 -71 -43 -73 -41 -2 1
31 37 74 79 190 188 440 331 683 393 74 18 179 38 234 44 54 7 101 13 103 15
4 5 -76 22 -171 37 -97 15 -317 5 -439 -21 -290 -61 -545 -200 -762 -416 -316
-313 -506 -705 -601 -1237 -12 -70 -25 -130 -28 -133 -13 -13 -22 104 -21 276
0 209 17 312 81 500 166 491 558 907 1015 1080 238 90 366 110 653 106 178 -3
239 -8 319 -26z m-2057 -188 l122 -117 -65 -80 c-36 -44 -83 -106 -105 -137
-22 -32 -45 -58 -52 -58 -7 0 -64 29 -127 64 -164 91 -180 100 -180 109 0 23
260 338 278 336 4 0 62 -53 129 -117z m-258 -600 c14 -9 27 -17 29 -18 1 -1
-13 -37 -32 -81 -40 -89 -96 -253 -96 -277 0 -9 -1 -16 -3 -16 -1 0 -77 14
-167 30 -90 17 -165 30 -166 30 -14 0 81 303 130 412 l25 57 127 -60 c70 -34
139 -68 153 -77z m3735 -141 c85 -30 135 -62 190 -120 207 -222 110 -603 -171
-676 -96 -25 -101 -21 -39 36 156 142 157 350 1 432 -33 17 -62 22 -163 25
-181 6 -332 -23 -722 -136 -96 -28 -209 -57 -250 -63 -94 -14 -238 -7 -307 17
-52 17 -69 34 -35 34 41 1 165 66 312 165 239 159 387 226 615 274 156 34 219
40 370 37 112 -3 152 -8 199 -25z m-345 -571 c71 -12 135 -41 145 -65 3 -9 6
-125 6 -258 0 -133 5 -270 10 -305 21 -129 123 -404 241 -651 38 -79 69 -150
69 -156 0 -20 -25 -25 -135 -25 -131 0 -245 -16 -315 -43 -46 -19 -55 -26 -55
-47 0 -34 67 -70 146 -77 50 -5 59 -9 54 -22 -17 -42 -16 -89 4 -141 12 -30
21 -56 21 -58 0 -1 -14 5 -31 14 -40 20 -77 15 -205 -30 -56 -20 -121 -38
-145 -40 -39 -4 -44 -7 -41 -27 1 -13 7 -28 12 -33 4 -4 69 -11 143 -14 l135
-5 32 -69 c18 -38 29 -72 25 -76 -4 -4 -45 -7 -91 -7 -46 0 -84 -2 -84 -5 0
-3 7 -14 15 -24 9 -12 15 -43 15 -80 0 -34 11 -106 25 -160 33 -131 19 -188
-55 -226 -107 -55 -396 11 -769 175 -400 177 -663 388 -805 646 -78 142 -127
359 -109 483 l8 60 110 54 c129 63 219 133 296 228 63 78 75 98 149 239 94
180 140 226 375 375 55 35 174 111 265 169 257 163 319 199 348 204 53 8 128
7 191 -3z m-1542 -75 c34 -3 147 -21 250 -40 160 -28 294 -45 453 -58 l35 -2
-40 -18 c-22 -10 -124 -40 -227 -67 -224 -59 -311 -94 -400 -160 -76 -58 -129
-124 -225 -283 -113 -187 -244 -295 -400 -328 -67 -13 -246 -7 -308 12 l-40
12 61 13 c140 29 280 110 347 201 19 26 63 100 97 163 34 63 78 136 97 162 49
67 143 150 216 189 l62 34 -58 3 c-76 4 -206 -29 -272 -69 -27 -17 -90 -66
-139 -109 -100 -90 -167 -126 -258 -139 -109 -15 -258 16 -352 73 l-40 24 65
6 c149 16 240 60 386 183 219 186 364 228 690 198z"/>
<path d="M6961 5935 c-97 -25 -242 -87 -263 -112 -9 -12 -7 -13 13 -9 13 3 62
10 109 16 176 21 323 7 427 -41 l48 -21 -42 -19 c-58 -26 -202 -63 -376 -94
-95 -18 -147 -32 -144 -39 7 -21 153 -115 272 -175 103 -52 181 -80 295 -105
l25 -5 0 87 c0 103 8 121 98 223 152 172 154 200 17 263 -138 63 -311 74 -479
31z"/>
</g>
</svg>
